<?xml version="1.0" encoding="UTF-8"?>
<svg id="uuid-14b90f29-a7a5-4513-a3d5-5a4f7713fdf4" data-name="Calque 1" xmlns="http://www.w3.org/2000/svg" viewBox="0 0 1366 713.92">
  <defs>
    <style>
      .uuid-7806ba33-0e27-40f2-99a8-639bcdb1e0d0, .uuid-c3653b2e-2194-4a4d-bd20-a0b43bcee462, .uuid-f7f86190-00e5-4556-a8b8-e4f701c5ec44, .uuid-35db7406-d902-44b7-9f6e-8053b2504415, .uuid-dcd00854-08c3-4cb5-a8d0-28294792c111, .uuid-68bfbbca-acba-410a-a836-30873a8c857f {
        stroke: #212b2d;
        stroke-miterlimit: 10;
      }

      .uuid-7806ba33-0e27-40f2-99a8-639bcdb1e0d0, .uuid-720b15b8-57a9-4d98-a820-b35a352a59bc {
        fill: #e1c192;
      }

      .uuid-7806ba33-0e27-40f2-99a8-639bcdb1e0d0, .uuid-35db7406-d902-44b7-9f6e-8053b2504415 {
        stroke-width: .5px;
      }

      .uuid-c3653b2e-2194-4a4d-bd20-a0b43bcee462 {
        stroke-width: 2px;
      }

      .uuid-c3653b2e-2194-4a4d-bd20-a0b43bcee462, .uuid-dd071b6d-406e-422d-ab2d-73290297df3e, .uuid-dcd00854-08c3-4cb5-a8d0-28294792c111, .uuid-5262c230-57dc-41db-b246-a108c75d41e5, .uuid-68bfbbca-acba-410a-a836-30873a8c857f {
        fill: #212b2d;
      }

      .uuid-720b15b8-57a9-4d98-a820-b35a352a59bc, .uuid-dd071b6d-406e-422d-ab2d-73290297df3e, .uuid-3ff7d5f7-9754-47ea-ab3c-36e6b0a898ff, .uuid-95aae02a-2eb8-4a61-b7e7-c8c3d25cc7c5, .uuid-5262c230-57dc-41db-b246-a108c75d41e5 {
        stroke-width: 0px;
      }

      .uuid-f7f86190-00e5-4556-a8b8-e4f701c5ec44 {
        stroke-width: 3px;
      }

      .uuid-f7f86190-00e5-4556-a8b8-e4f701c5ec44, .uuid-35db7406-d902-44b7-9f6e-8053b2504415 {
        fill: none;
      }

      .uuid-3ff7d5f7-9754-47ea-ab3c-36e6b0a898ff, .uuid-95aae02a-2eb8-4a61-b7e7-c8c3d25cc7c5 {
        fill: #ffedcf;
      }

      .uuid-95aae02a-2eb8-4a61-b7e7-c8c3d25cc7c5 {
        opacity: .65;
      }

      .uuid-5262c230-57dc-41db-b246-a108c75d41e5 {
        opacity: .95;
      }

      .uuid-68bfbbca-acba-410a-a836-30873a8c857f {
        stroke-width: .75px;
      }
    </style>
  </defs>
  <path class="uuid-dd071b6d-406e-422d-ab2d-73290297df3e" d="M299.12,218.01l-1.15-40.13c-.13-4.54,2.89-8.58,7.29-9.73l17.62-4.63c6.07-.25,11.12,4.6,11.12,10.68v43.82h-34.88Z"/>
  <g>
    <ellipse class="uuid-dd071b6d-406e-422d-ab2d-73290297df3e" cx="262.72" cy="549.79" rx="128.55" ry="148.68"/>
    <path class="uuid-dd071b6d-406e-422d-ab2d-73290297df3e" d="M757.93,586.45c0,68.49-56.14,124.01-125.4,124.01s-99.58-55.57-108.8-124.01c-9.14-67.88,39.55-124.01,108.8-124.01s125.4,55.52,125.4,124.01Z"/>
    <path class="uuid-dd071b6d-406e-422d-ab2d-73290297df3e" d="M821.43,573.75c-4.49,68.23-31.59,120.11-100.84,120.11s-125.4-55.52-125.4-124.01,56.14-124.01,125.4-124.01,105.34,59.58,100.84,127.92Z"/>
    <ellipse class="uuid-dd071b6d-406e-422d-ab2d-73290297df3e" cx="1159.79" cy="547.03" rx="125.4" ry="151.44"/>
    <path class="uuid-dd071b6d-406e-422d-ab2d-73290297df3e" d="M390.08,569.85l193.68-5.46,68.95-93.28c1.44-1.95,3.73-3.09,6.15-3.07l52.49.45c2.26-.3,4.51.63,5.89,2.44l67.11,87.8,341.27-9.62-72.19-56.06h-270.16l-8.3-122.63s-207.46-43.83-173.34,70.75H101.58c-17.77,0-32.08,14.59-31.75,32.35l.68,36.07h68.42"/>
  </g>
  <ellipse class="uuid-dd071b6d-406e-422d-ab2d-73290297df3e" cx="683" cy="693.86" rx="683" ry="20.05"/>
  <polygon class="uuid-68bfbbca-acba-410a-a836-30873a8c857f" points="1264.88 486.87 1301.42 445.83 1257.23 351.31 1136.84 351.31 1136.84 421.39 1264.88 486.87"/>
  <ellipse class="uuid-720b15b8-57a9-4d98-a820-b35a352a59bc" cx="1207.76" cy="550.63" rx="52.28" ry="77.76"/>
  <ellipse class="uuid-720b15b8-57a9-4d98-a820-b35a352a59bc" cx="685.17" cy="560.15" rx="60.85" ry="87.29"/>
  <path class="uuid-f7f86190-00e5-4556-a8b8-e4f701c5ec44" d="M453.34,48.53l21.42-28.72c5.06-6.79,13.52-10.86,22.57-10.86h407.15c7.76,0,15.15,3,20.32,8.24l38.87,48.92"/>
  <path class="uuid-f7f86190-00e5-4556-a8b8-e4f701c5ec44" d="M833.88,45.2l16.8-31.71c3.97-7.5,10.6-11.99,17.7-11.99h319.27c6.08,0,11.88,3.31,15.93,9.1l30.48,54.02"/>
  <path class="uuid-720b15b8-57a9-4d98-a820-b35a352a59bc" d="M101.34,441.17h507.38c.4,0,.74-.31.77-.71.48-6.93,4.89-62.08,23.47-63.8h111.11s18.87-2.9,39.55,129.79c.06.38.4.67.78.66l330.89-10.22c1.03-.03,8.39-3.37,8.62-4.37,3.62-15.45,23.73-115.58,44.29-115.9l90.82-1.2s16.09-3.75,33.25,87.03c.16.86.92,1.5,1.8,1.49l10.77-.09c1.09,0,1.96-.88,1.92-1.97-.45-12.95-10.16-88.48-18.14-104.02l-18.18-270.62c-.09-1.29-.42-2.54-.99-3.7-3.89-7.92-18.45-30.19-23.16-35.84-7.3-8.76-208.46-12.15-412.42-12.63-187.88-.45-376.42,7.01-429.52,6.99-6.41,0-8.02.36-10.88,6.1l-71.37,167.35-62.39,7.38c-3.78.01-42.42,7.42-46.1,8.3-14.39,3.43-15.66,5.03-25.35,34.56-.64,1.96-1.97,3.63-3.74,4.68l-8.69,5.19c-1.39.83-2.91,1.42-4.5,1.75l-62.87,13.07c-4.22.88-7.22,4.63-7.14,8.94v141.79Z"/>
  <path class="uuid-95aae02a-2eb8-4a61-b7e7-c8c3d25cc7c5" d="M538.86,441.17h47.33l16.35-69.58c1.32-4.75,5.97-9.4,10.89-9.4l127.61-.27c4.74,0,8.46-.29,13.65,5.83.72.84,1.19,1.9,1.42,2.98l28.27,136.37-27.42-150.88c-.1-.56-.36-1.07-.74-1.49l-10.2-13.66c-1.67-1.89-4.51-2.59-7.02-2.68l-138.29-4.93c-12.08,0-22.92,7.42-27.3,18.69l-34.55,89.02Z"/>
  <path class="uuid-95aae02a-2eb8-4a61-b7e7-c8c3d25cc7c5" d="M427.96,383.45l40.31-1.02c25.85-.65,49.99-14.09,54.37-39.57v-40.55c.78-4.52,4.78-19.1,31.79-20.33l233.81-3.1c8.12-.11,14.99-6.04,16.27-14.07l32.34-202.6c1.08-6.79,12.78-17.79,19.65-17.68l376.04,2.61c1.01,0,2.02.11,3.02.3l12.4,2.37c-.8-.92-1.14-1.98-2.35-2.64-3.83-2.11-10.45-2.49-15.56-3.11-.6-.07-1.18-.12-1.79-.12l-383.46-5.63-444.65,4.58c-2.83-.1-5.34,2.95-6.65,6.05l-62.52,146.58c-2.06,4.83-7.96,17.89-8.86,19.99l-67.27,7.95c-.06,0-20.37,3.65-20.43,3.66l-22.25,4.49c-10.52,1.63-15.15,8.29-17.85,16.71l-6.47,18.52c-1.24,2.91-3.42,3.3-6.02,5.09l-5.07,3.14c-1.81,1.25-3.99,1.99-6.14,2.45l-58.31,12.12c-12.53,1.64-11.62,8.33-11.33,24.32v45.4c0,5.41-1.64,16.02,2.91,18.85.7.43,1.48.71,2.28.91l44.49,2.33c7.42.39,14.81-1.31,21.26-5,2.38-1.36,4.33-2.38,5.29-2.39l249.71,9.37c.35.01.7.02,1.05,0Z"/>
  <path class="uuid-95aae02a-2eb8-4a61-b7e7-c8c3d25cc7c5" d="M1058.97,498.61l40.64-1.26,32.39-131.33c.8-3.62,15.51-11.55,19.22-11.78l108.83,3.08c1.13-.04,3.33-.15,4.87-.05,7.11.48,6.65-.5,8.45,2.48l22.32,50.83c-.88-3.18-6.58-17.98-14.03-50.89-4.36-19.25-5.14-21.92-8.29-21.94l-135.24-9.5c-8.48.45-18.88,7.94-21.23,16.1l-57.92,154.25Z"/>
  <path class="uuid-dcd00854-08c3-4cb5-a8d0-28294792c111" d="M181.79,281.2h241.5c1.62,0,2.94,1.32,2.94,2.94v157.03h-247.11v-157.3c0-1.47,1.2-2.67,2.67-2.67Z"/>
  <rect class="uuid-720b15b8-57a9-4d98-a820-b35a352a59bc" x="208.01" y="412.94" width="185.94" height="16.9" rx="1.07" ry="1.07"/>
  <rect class="uuid-720b15b8-57a9-4d98-a820-b35a352a59bc" x="209.55" y="342.86" width="185.94" height="16.9" rx="1.07" ry="1.07"/>
  <rect class="uuid-720b15b8-57a9-4d98-a820-b35a352a59bc" x="208.01" y="377.9" width="185.94" height="16.9" rx="1.07" ry="1.07"/>
  <rect class="uuid-720b15b8-57a9-4d98-a820-b35a352a59bc" x="209.55" y="305.67" width="185.94" height="16.9" rx="1.07" ry="1.07"/>
  <path id="uuid-27fbc3e8-3928-4b96-99b2-c62253df27a9" data-name="Door" class="uuid-7806ba33-0e27-40f2-99a8-639bcdb1e0d0" d="M807.31,507.03l-5.46-273.53,33.89-173.33c.14-.71.76-1.23,1.49-1.23l146.77-.8s28.16,281.74,17.71,442.17l-194.4,6.71Z"/>
  <ellipse class="uuid-dd071b6d-406e-422d-ab2d-73290297df3e" cx="137.45" cy="338.25" rx="31.3" ry="35.04"/>
  <ellipse class="uuid-dd071b6d-406e-422d-ab2d-73290297df3e" cx="477.99" cy="338.25" rx="31.3" ry="35.04"/>
  <ellipse class="uuid-dd071b6d-406e-422d-ab2d-73290297df3e" cx="684.45" cy="561.48" rx="30.14" ry="45.64"/>
  <ellipse class="uuid-dd071b6d-406e-422d-ab2d-73290297df3e" cx="1207.12" cy="552.24" rx="26.92" ry="40.6"/>
  <rect class="uuid-dd071b6d-406e-422d-ab2d-73290297df3e" x="950.63" y="312.28" width="36.32" height="15.98"/>
  <rect class="uuid-dd071b6d-406e-422d-ab2d-73290297df3e" x="446.7" y="397.72" width="53.09" height="31.96"/>
  <rect class="uuid-dd071b6d-406e-422d-ab2d-73290297df3e" x="115.66" y="397.72" width="53.09" height="31.96"/>
  <path class="uuid-dd071b6d-406e-422d-ab2d-73290297df3e" d="M1285.47,291.53l-732.22,10.78c-1.04.02-1.58-1.27-1.58-2.31v-15.49c0-3.11,2.5-3.6,5.62-3.64l724.18-12.4c1.28-.02,2.35,1.37,2.77,2.6l3.66,18c0,1.34-1.08,2.44-2.42,2.46Z"/>
  <path id="uuid-a8ee9e7d-af3f-4973-b801-db08d070f33a" data-name="Windows" class="uuid-5262c230-57dc-41db-b246-a108c75d41e5" d="M1199.47,73.16c-1.14,0-2.05,1.18-2.02,2.32l6.93,128.45c.07.79.51.73.51.73l52.84-.22c1.79,0,2.31-.76,2.3-1.5-.07-14.72-7.65-129.78-9.09-129.78h-51.49Z"/>
  <path id="uuid-2ec9fddc-596e-4cad-8f03-99f4fc783dce" data-name="Windows" class="uuid-5262c230-57dc-41db-b246-a108c75d41e5" d="M805.27,71.71c1.07,0,1.85.99,1.56,2.01-4.78,16.71-26.32,132.28-28.82,132.28l-437.29.1c-2.38,0,52.09-134.39,53.63-134.39h410.92Z"/>
  <path id="uuid-08b8443f-1051-4e78-aece-7877b6e44e77" data-name="Windows" class="uuid-5262c230-57dc-41db-b246-a108c75d41e5" d="M1014.37,72.69c-1.14,0-2.05.94-2.02,2.07l3.17,119.03c-.66,2.62,2.37,11.32,5.07,11.32l166.79-.79c2.38,0,1.69-2.93,1.56-5.31l-6.69-123.59c-.08-1.54-1.35-2.74-2.89-2.74h-164.99Z"/>
  <path id="uuid-f48b6bdd-d157-4ee0-84a8-9b8724bcb978" data-name="Windows" class="uuid-5262c230-57dc-41db-b246-a108c75d41e5" d="M859.42,78.14l-24.16,116.39c-.62,2.44,1.05,4.81,3.28,8.15.31.47.85.77,1.41.76l128-.6c2.82-.33,1.92-6.68,1.78-9.06l-8.89-117.25c-.13-2.26-1.07-2.18-7.79-2.15h-88.28c-3.84.14-4.41.03-5.35,3.76Z"/>
  <polygon class="uuid-95aae02a-2eb8-4a61-b7e7-c8c3d25cc7c5" points="806.02 218.06 1279.23 218.06 803.84 229.48 806.02 218.06"/>
  <path class="uuid-35db7406-d902-44b7-9f6e-8053b2504415" d="M427.49,285.81s-12.96-41.67,342.76-46.58c0,0,17.25.42,31.74,37.83"/>
  <polyline class="uuid-35db7406-d902-44b7-9f6e-8053b2504415" points="837.23 58.95 1253.15 56.25 837.23 58.95 391.27 53.36"/>
  <polygon class="uuid-dd071b6d-406e-422d-ab2d-73290297df3e" points="830.1 248.54 849.59 246.1 853.88 258.67 829.44 259.73 830.1 248.54"/>
  <path class="uuid-dd071b6d-406e-422d-ab2d-73290297df3e" d="M901.67,226.34l.87-30.49c.23-8.19-5.21-15.46-13.13-17.54l-15.98-4.2c-7.13-.29-13.06,5.41-13.06,12.54v45.33c0,3.39,2.75,6.13,6.13,6.13h23.05c6.56,0,11.93-5.22,12.11-11.77Z"/>
  <line class="uuid-c3653b2e-2194-4a4d-bd20-a0b43bcee462" x1="869.88" y1="229.51" x2="844.67" y2="252.92"/>
  <rect class="uuid-3ff7d5f7-9754-47ea-ab3c-36e6b0a898ff" x="194.93" y="453.72" width="205.91" height="44.9"/>
</svg>